<svg width="50" height="48" viewBox="0 0 50 48" fill="none" xmlns="http://www.w3.org/2000/svg">
<rect width="50" height="47.619" rx="23.8095" fill="#EF9E36"/>
<path d="M19.0602 10.0847C18.595 10.205 18.4547 10.2652 18.0043 10.5593C17.4505 10.9269 17.1921 11.3547 16.306 13.4267C15.8482 14.4894 15.4642 15.3784 15.4568 15.3918C15.4421 15.4051 15.2648 15.3517 15.0655 15.2715C14.7332 15.1445 14.5707 15.1311 13.2342 15.1311C11.5728 15.1311 11.3513 15.1846 10.9452 15.6324C10.288 16.3542 10.539 17.4571 11.462 17.8381C11.8165 17.9918 11.9346 18.0052 12.9536 18.0052H14.0612L13.6182 18.3728C13.3745 18.58 12.6213 19.1815 11.942 19.7163C10.6203 20.7523 10.4283 20.9394 10.1698 21.4541C10 21.7816 10 21.7883 10 25.03V28.2717L10.2806 28.7797L10.5538 29.2876V30.718C10.5538 32.3489 10.6055 32.5895 11.0485 33.0039C11.5654 33.4784 11.5285 33.4784 13.9283 33.4985C15.3608 33.5119 16.1878 33.4918 16.3946 33.445C16.8155 33.3381 17.3767 32.8568 17.5244 32.4625C17.613 32.2352 17.6425 31.8944 17.6425 31.226V30.3036H21.9917C24.3841 30.3036 26.4 30.2835 26.4665 30.2635C26.5994 30.2167 26.7987 29.8959 26.7987 29.7355C26.7987 29.6753 26.7027 29.5349 26.5846 29.428L26.3705 29.2342H22.9664H19.5697L19.7839 28.7128L19.9906 28.1982L23.1141 28.1647C24.8346 28.1447 26.2523 28.1179 26.2597 28.1113C26.3335 28.0511 26.5034 27.6835 26.5034 27.5966C26.5034 27.5364 26.4074 27.3961 26.2892 27.2891L26.0751 27.0953H22.7449H19.4221L19.2375 27.2423C19.1119 27.3426 18.9273 27.7035 18.691 28.2984L18.3292 29.2007H15.3461C12.0232 29.2007 12.1709 29.2208 11.6393 28.7262C11.1519 28.2717 11.1445 28.2115 11.1445 24.9899V22.1091L11.3291 21.7749C11.4325 21.5878 11.654 21.3338 11.8312 21.2068C12.4663 20.7523 13.7068 19.7564 14.4009 19.1548L15.1098 18.5399H26.5034H37.8896L38.6059 19.1548C38.9972 19.4957 39.7947 20.144 40.3854 20.5985C41.4413 21.4073 41.6407 21.6279 41.8696 22.2094C42.0247 22.5903 42.5785 22.6973 42.8738 22.4032C43.0732 22.2027 43.0363 21.8284 42.7631 21.3271C42.512 20.8659 42.416 20.7723 40.7546 19.469C40.3706 19.1682 39.8095 18.7137 39.5067 18.4597L38.9529 18.0052H40.0605C41.109 18.0052 41.1903 17.9985 41.5595 17.8314C42.4751 17.417 42.7188 16.3542 42.0616 15.6324C41.6555 15.1846 41.4339 15.1311 39.7725 15.1311C38.436 15.1311 38.2736 15.1445 37.9413 15.2715C37.7419 15.3517 37.5647 15.4051 37.5499 15.3918C37.5352 15.3784 37.1512 14.4894 36.7008 13.4267C36.206 12.2837 35.763 11.3413 35.6079 11.1341C35.3052 10.7331 34.7957 10.3655 34.2345 10.1583C33.8505 10.0179 33.821 10.0179 26.6511 10.0045C20.5814 9.99116 19.3925 10.0045 19.0602 10.0847ZM34.0499 11.2745C34.2419 11.3747 34.4782 11.5552 34.5815 11.6755C34.6775 11.7891 35.1944 12.8786 35.7187 14.0951C36.2503 15.3049 36.7968 16.5548 36.9371 16.8689L37.1955 17.437L31.8494 17.4571C28.9106 17.4638 24.0962 17.4638 21.1573 17.4571L15.8113 17.437L16.0697 16.8689C16.21 16.5548 16.7564 15.3116 17.2807 14.1018C17.805 12.892 18.3071 11.8226 18.3883 11.7156C18.5729 11.4817 18.9126 11.2611 19.2596 11.1475C19.4737 11.074 20.9432 11.0606 26.6141 11.074L33.7028 11.0873L34.0499 11.2745ZM14.7406 16.3342C14.9769 16.4612 14.9769 16.4679 14.8809 16.6818L14.7775 16.9023L13.3893 16.9224C12.1857 16.9357 11.9937 16.9224 11.8756 16.8288C11.7057 16.6884 11.6983 16.4812 11.8608 16.3208C11.9642 16.2139 12.1118 16.2005 13.2416 16.2005C14.364 16.2005 14.5338 16.2139 14.7406 16.3342ZM41.1386 16.3141C41.3084 16.4478 41.3084 16.6149 41.146 16.7954C41.0204 16.9357 40.9687 16.9424 39.6249 16.9224L38.2293 16.9023L38.1259 16.6818C38.0299 16.4679 38.0299 16.4612 38.2662 16.3342C38.4729 16.2139 38.6428 16.2005 39.7504 16.2005C40.8137 16.2005 41.0204 16.2206 41.1386 16.3141ZM12.3555 30.2434C12.5549 30.2768 13.5591 30.3036 14.5855 30.3036H16.4611V31.2059C16.4611 32.0815 16.4537 32.1216 16.2765 32.2753L16.0992 32.4424H14.0982H12.0971L11.9199 32.2753C11.7426 32.1216 11.7353 32.0882 11.7353 31.099C11.7353 30.1632 11.7426 30.0897 11.8682 30.1365C11.9346 30.1565 12.1561 30.21 12.3555 30.2434Z" fill="white"/>
<path d="M33.9318 20.9194C30.9855 21.4474 28.6965 23.3924 27.9285 26.0125C27.7587 26.5806 27.7365 26.7945 27.7365 27.7303C27.7291 28.6794 27.7513 28.8732 27.9285 29.4614C28.0393 29.829 28.2756 30.4105 28.4676 30.7581L28.8072 31.3931L26.1047 33.8394C24.1036 35.6574 23.3725 36.3659 23.2618 36.5865C22.8704 37.3752 23.2544 38.3109 24.1257 38.6986C24.5171 38.8724 25.2703 38.8657 25.6542 38.6785C25.8167 38.5983 27.1384 37.4554 28.6374 36.0985L31.3178 33.6656L31.9602 33.953C34.5225 35.1093 37.6312 34.862 39.9128 33.3247C41.3454 32.3622 42.3348 31.0321 42.8 29.448C42.9698 28.8866 42.992 28.666 42.9994 27.7637C42.9994 26.9215 42.9698 26.6207 42.8443 26.1596C42.0911 23.4392 39.7578 21.4273 36.7672 20.9194C36.0288 20.7924 34.6332 20.7924 33.9318 20.9194ZM36.9888 22.0489C39.2483 22.5903 41.0278 24.2012 41.6555 26.2866C41.781 26.6943 41.8105 26.9884 41.8105 27.7637C41.8105 28.6259 41.7884 28.7997 41.6186 29.321C40.7915 31.7807 38.6576 33.3515 35.7999 33.6121C35.1797 33.6723 34.0942 33.5453 33.3853 33.3381C31.7239 32.8435 30.4539 31.881 29.649 30.4974C28.9254 29.2475 28.7186 28.0778 28.9771 26.7277C29.4349 24.3616 31.3843 22.5369 34.0721 21.9754C34.6628 21.8551 36.339 21.8952 36.9888 22.0489ZM29.9739 32.6764L30.38 33.044L27.8694 35.3232C26.4886 36.5731 25.2703 37.6425 25.1595 37.696C25.0487 37.7495 24.8937 37.7896 24.8051 37.7896C24.5688 37.7896 24.2882 37.4955 24.2882 37.2415C24.2882 37.0477 24.5318 36.8004 26.8874 34.6682C28.3199 33.3715 29.5087 32.3088 29.5309 32.3088C29.553 32.3088 29.7524 32.4759 29.9739 32.6764Z" fill="white"/>
<path d="M36.1248 27.1086L34.4781 28.5925L33.7176 27.9107C33.0678 27.3359 32.9127 27.2289 32.7133 27.2289C32.4401 27.2289 32.1152 27.4829 32.1152 27.6968C32.1152 27.9508 32.3146 28.1914 33.2007 28.9734C34.1606 29.829 34.3231 29.9359 34.611 29.8691C34.8326 29.8223 38.3326 26.7143 38.5098 26.4135C38.5689 26.3132 38.6132 26.1729 38.6132 26.0927C38.6132 25.8788 38.2883 25.6248 38.0077 25.6248C37.801 25.6248 37.5942 25.7852 36.1248 27.1086Z" fill="white"/>
<path d="M12.6583 21.8283C12.3703 21.9821 12.3186 22.0957 12.3556 22.5435C12.4294 23.3255 12.961 24.1142 13.7142 24.542C14.3788 24.923 14.6372 24.9564 17.1183 24.9564C18.7797 24.9497 19.4073 24.9297 19.4959 24.8695C19.6362 24.7693 19.7839 24.5353 19.7839 24.395C19.7839 24.2479 18.0413 21.9019 17.8714 21.8217C17.6647 21.7147 12.8577 21.7281 12.6583 21.8283ZM17.6425 23.3189C17.8419 23.5929 18.0117 23.8335 18.0117 23.8536C18.0117 23.9271 15.036 23.887 14.7332 23.8068C14.4009 23.7199 13.6552 23.105 13.6552 22.9245C13.6552 22.8309 13.8693 22.8176 15.4642 22.8176H17.266L17.6425 23.3189Z" fill="white"/>
<path d="M20.1752 21.815C19.9833 21.8885 19.8577 22.0823 19.8577 22.3163C19.8577 22.4834 21.4379 24.6957 21.689 24.8695C21.7776 24.9364 22.4274 24.9564 24.3399 24.9564H26.88L27.0572 24.7893C27.2566 24.6155 27.2935 24.3214 27.1458 24.1477C26.939 23.9004 26.7766 23.887 24.5245 23.887H22.3166L21.94 23.3656L21.5561 22.851L24.9453 22.8176C28.1426 22.7841 28.342 22.7775 28.4897 22.6572C28.7112 22.4767 28.6964 22.1224 28.4602 21.9152L28.2829 21.7481L24.3103 21.7548C22.1246 21.7548 20.2639 21.7816 20.1752 21.815Z" fill="white"/>
</svg>
