<svg id="Layer_1" height="512" viewBox="0 0 48 48" width="512" xmlns="http://www.w3.org/2000/svg" data-name="Layer 1"><g fill="#53bbf3"><path d="m34.552 3.878 1.1.414-1.1.414a3.447 3.447 0 0 0 -2.022 2.022l-.414 1.105-.416-1.105a3.447 3.447 0 0 0 -2.02-2.022l-1.106-.414 1.106-.414a3.45 3.45 0 0 0 2.02-2.022l.416-1.106.414 1.106a3.45 3.45 0 0 0 2.022 2.022z"/><path d="m41.537 8.633.838.314-.838.314a2.613 2.613 0 0 0 -1.537 1.533l-.314.838-.313-.838a2.618 2.618 0 0 0 -1.533-1.533l-.839-.314.839-.314a2.618 2.618 0 0 0 1.537-1.533l.313-.838.31.838a2.613 2.613 0 0 0 1.537 1.533z"/><path d="m46.222 3.978.838.314-.838.313a2.618 2.618 0 0 0 -1.533 1.533l-.314.839-.313-.839a2.624 2.624 0 0 0 -1.533-1.533l-.839-.313.839-.314a2.618 2.618 0 0 0 1.533-1.533l.313-.838.314.838a2.613 2.613 0 0 0 1.533 1.533z"/></g><path d="m45.668 37.884v.22c0 2.682-1.825 4.349-4.764 4.349h-1v3.783a1.014 1.014 0 0 0 1.015 1.014h3.9a1.014 1.014 0 0 0 1.015-1.014v-8.382z" fill="#384149"/><path d="m2.389 38.1v-.1l-.228-.074v8.3a1.014 1.014 0 0 0 1.014 1.024h3.9a1.014 1.014 0 0 0 1.014-1.014v-3.783h-.936c-2.938 0-4.764-1.667-4.764-4.353z" fill="#384149"/><path d="m5.183 19.693a.9.9 0 0 0 -.982-.532l-2.501.439a.984.984 0 0 0 -.827.973v.491a.988.988 0 0 0 .777.965l3.545.81.828-1.265z" fill="#019f74"/><path d="m46.3 19.6-2.5-.434a.9.9 0 0 0 -.981.532l-.833 1.883.838 1.267 3.528-.819a.987.987 0 0 0 .778-.965v-.491a.984.984 0 0 0 -.83-.973z" fill="#019f74"/><path d="m44.567 25.307-2.587-3.945-.257-.392-2.191-5.17a5.367 5.367 0 0 0 -4.095-3.216 73.775 73.775 0 0 0 -11.437-.835 73.749 73.749 0 0 0 -11.436.838 5.368 5.368 0 0 0 -4.1 3.216l-2.187 5.167-.257.392-2.587 3.945a7.768 7.768 0 0 0 -1.272 4.26v8.533c0 2.874 2 4.549 4.964 4.549h33.751c2.96 0 4.964-1.675 4.964-4.549v-8.533a7.769 7.769 0 0 0 -1.273-4.26z" fill="#35a880"/><path d="m2.161 36.519v1.581c0 2.874 2 4.549 4.964 4.549h33.751c2.96 0 4.964-1.675 4.964-4.549v-1.581z" fill="#017a54"/><path d="m7.621 20.362 1.768-4.169a4.346 4.346 0 0 1 3.331-2.619 73.008 73.008 0 0 1 11.28-.825 73.008 73.008 0 0 1 11.28.825 4.346 4.346 0 0 1 3.331 2.619l1.768 4.169z" fill="#c1ecfb"/><path d="m18.377 19.362h21.578l-1.344-3.169a4.346 4.346 0 0 0 -3.331-2.619 73.008 73.008 0 0 0 -11.28-.825 77.208 77.208 0 0 0 -8.331.437 1.091 1.091 0 0 0 -.225.22 3.687 3.687 0 0 0 2.933 5.956z" fill="#dff8ff"/><path d="m45.84 29.567a7.769 7.769 0 0 0 -1.273-4.26l-2.587-3.945-.257-.392-.258-.608h-32.971c-.189.334-.38.68-.574 1.041-1.428 2.656-2.82 4.285-2.82 8.205v6.47c0 .15.007.3.018.441h40.722z" fill="#1fc091"/><path d="m5.115 36.519c.2 2.6 2.141 4.108 4.946 4.108h33.751a6.931 6.931 0 0 0 1.455-.164 4.672 4.672 0 0 0 .573-2.363v-1.581z" fill="#019f74"/><path d="m6.27 27.39s3.922.244 4.452.407 2.564 4.03 2.564 4.03l-6.618-.934a1.483 1.483 0 0 1 -1.229-1.125 3.247 3.247 0 0 1 -.105-1.035c.081-.896.366-1.343.936-1.343z" fill="#dff8ff"/><path d="m41.729 27.39s-3.922.244-4.451.407-2.565 4.03-2.565 4.03l6.618-.934a1.483 1.483 0 0 0 1.229-1.125 3.247 3.247 0 0 0 .1-1.035c-.076-.896-.36-1.343-.931-1.343z" fill="#dff8ff"/><path d="m16.208 32.4-1.975-4.189s6.957.606 9.766.606 9.768-.606 9.768-.606l-1.975 4.189-7.84.448z" fill="#019f74"/></svg>