<svg id="Capa_1" enable-background="new 0 0 512 512" height="512" viewBox="0 0 512 512" width="512" xmlns="http://www.w3.org/2000/svg"><circle cx="256" cy="256" fill="#5c5560" r="256"/><path d="m483.394 120.183v253.524c-8.673 16.729-19.143 32.381-31.159 46.697h-392.464c-12.016-14.315-22.497-29.978-31.169-46.717v-253.504c0-15.778 12.79-28.578 28.568-28.578h397.657c15.777 0 28.567 12.8 28.567 28.578z" fill="#eee"/><path d="m256.006 297.838 175.61 122.561 18.99-49.186 4.314-227.829-196.76 123.408z" fill="#e0e0e0"/><path d="m483.394 120.183v253.524c-8.673 16.729-19.143 32.381-31.159 46.697h-20.616v-245.144l-175.616 122.577-175.616-122.577v245.143h-20.616c-12.016-14.315-22.497-29.978-31.169-46.717v-253.503c0-15.778 12.79-28.578 28.568-28.578h2.894l195.939 136.756 195.939-136.756h2.884c15.778 0 28.568 12.8 28.568 28.578z" fill="#fc3f1d"/></svg>