<svg width="249" height="60" viewBox="0 0 249 60" fill="none" xmlns="http://www.w3.org/2000/svg">
<rect width="249" height="60" fill="#EF9E36"/>
<path d="M63.12 37L66.096 22.888H61.968L62.616 19.864H74.448L73.8 22.888H69.672L66.696 37H63.12ZM73.374 37L76.998 19.864H81.198C82.91 19.864 84.262 20.232 85.254 20.968C86.262 21.704 86.766 22.904 86.766 24.568C86.766 25.464 86.598 26.256 86.262 26.944C85.942 27.632 85.494 28.208 84.918 28.672C84.358 29.12 83.718 29.472 82.998 29.728L86.046 37H82.158L79.734 30.424H78.342L76.95 37H73.374ZM79.878 27.472C80.39 27.472 80.846 27.416 81.246 27.304C81.646 27.192 81.982 27.024 82.254 26.8C82.542 26.576 82.758 26.296 82.902 25.96C83.046 25.608 83.118 25.208 83.118 24.76C83.118 24.12 82.934 23.64 82.566 23.32C82.198 23 81.614 22.84 80.814 22.84H79.95L78.966 27.472H79.878ZM85.935 37L94.911 19.864H99.279L101.007 37H97.527L97.239 32.92H91.695L89.679 37H85.935ZM93.159 29.872H97.071L96.759 25.456C96.727 24.992 96.695 24.52 96.663 24.04C96.631 23.56 96.623 23.072 96.639 22.576H96.591C96.431 23.008 96.255 23.44 96.063 23.872C95.871 24.288 95.655 24.744 95.415 25.24L93.159 29.872ZM103.069 37L106.693 19.864H110.869L114.853 32.488H114.949C114.997 32.232 115.045 31.92 115.093 31.552C115.157 31.184 115.221 30.792 115.285 30.376C115.365 29.944 115.445 29.52 115.525 29.104C115.605 28.688 115.677 28.312 115.741 27.976L117.469 19.864H120.685L117.061 37H113.053L108.877 24.04H108.757C108.741 24.136 108.709 24.368 108.661 24.736C108.613 25.088 108.549 25.512 108.469 26.008C108.405 26.504 108.325 27.016 108.229 27.544C108.149 28.056 108.069 28.52 107.989 28.936L106.285 37H103.069ZM125.219 37.24C124.355 37.24 123.563 37.144 122.843 36.952C122.139 36.76 121.539 36.504 121.043 36.184V32.968C121.523 33.224 121.987 33.448 122.435 33.64C122.899 33.832 123.363 33.984 123.827 34.096C124.291 34.192 124.763 34.24 125.243 34.24C125.643 34.24 126.011 34.208 126.347 34.144C126.683 34.064 126.971 33.944 127.211 33.784C127.467 33.624 127.667 33.432 127.811 33.208C127.955 32.968 128.027 32.688 128.027 32.368C128.027 31.92 127.939 31.544 127.763 31.24C127.587 30.936 127.347 30.656 127.043 30.4C126.739 30.144 126.379 29.872 125.963 29.584C125.483 29.232 125.019 28.84 124.571 28.408C124.123 27.976 123.755 27.472 123.467 26.896C123.179 26.304 123.035 25.616 123.035 24.832C123.035 24.064 123.171 23.368 123.443 22.744C123.715 22.104 124.107 21.552 124.619 21.088C125.147 20.624 125.771 20.264 126.491 20.008C127.211 19.752 128.019 19.624 128.915 19.624C129.811 19.624 130.635 19.72 131.387 19.912C132.139 20.104 132.867 20.392 133.571 20.776L132.299 23.512C131.691 23.224 131.107 23.008 130.547 22.864C130.003 22.72 129.459 22.648 128.915 22.648C128.595 22.648 128.299 22.696 128.027 22.792C127.771 22.872 127.539 23 127.331 23.176C127.139 23.336 126.987 23.536 126.875 23.776C126.763 24.016 126.707 24.28 126.707 24.568C126.707 24.968 126.787 25.312 126.947 25.6C127.123 25.888 127.363 26.16 127.667 26.416C127.987 26.656 128.371 26.928 128.819 27.232C129.459 27.648 129.987 28.096 130.403 28.576C130.819 29.04 131.131 29.552 131.339 30.112C131.547 30.656 131.651 31.264 131.651 31.936C131.651 32.832 131.483 33.616 131.147 34.288C130.811 34.944 130.347 35.496 129.755 35.944C129.163 36.376 128.475 36.704 127.691 36.928C126.923 37.136 126.099 37.24 125.219 37.24ZM133.913 37L137.537 19.864H147.065L146.441 22.84H140.489L139.553 27.256H145.097L144.449 30.232H138.905L137.489 37H133.913ZM146.663 37L150.287 19.864H159.863L159.239 22.84H153.239L152.447 26.608H158.039L157.391 29.584H151.799L150.863 34H156.863L156.239 37H146.663ZM159.671 37L163.295 19.864H167.495C169.207 19.864 170.559 20.232 171.551 20.968C172.559 21.704 173.063 22.904 173.063 24.568C173.063 25.464 172.895 26.256 172.559 26.944C172.239 27.632 171.791 28.208 171.215 28.672C170.655 29.12 170.015 29.472 169.295 29.728L172.343 37H168.455L166.031 30.424H164.639L163.247 37H159.671ZM166.175 27.472C166.687 27.472 167.143 27.416 167.543 27.304C167.943 27.192 168.279 27.024 168.551 26.8C168.839 26.576 169.055 26.296 169.199 25.96C169.343 25.608 169.415 25.208 169.415 24.76C169.415 24.12 169.231 23.64 168.863 23.32C168.495 23 167.911 22.84 167.111 22.84H166.247L165.263 27.472H166.175ZM174.152 32.032L174.776 29.104H180.92L180.296 32.032H174.152ZM189.206 37.24C187.814 37.24 186.646 36.968 185.702 36.424C184.758 35.88 184.046 35.12 183.566 34.144C183.086 33.168 182.846 32.024 182.846 30.712C182.846 29.816 182.926 28.928 183.086 28.048C183.246 27.152 183.486 26.288 183.806 25.456C184.142 24.624 184.55 23.856 185.03 23.152C185.526 22.448 186.11 21.832 186.782 21.304C187.454 20.76 188.214 20.344 189.062 20.056C189.926 19.752 190.878 19.6 191.918 19.6C193.998 19.6 195.558 20.184 196.598 21.352C197.654 22.52 198.182 24.072 198.182 26.008C198.182 26.936 198.102 27.856 197.942 28.768C197.798 29.68 197.566 30.56 197.246 31.408C196.926 32.24 196.518 33.016 196.022 33.736C195.542 34.44 194.966 35.056 194.294 35.584C193.638 36.096 192.886 36.504 192.038 36.808C191.19 37.096 190.246 37.24 189.206 37.24ZM189.47 34.192C189.934 34.192 190.382 34.112 190.814 33.952C191.246 33.776 191.646 33.528 192.014 33.208C192.398 32.872 192.742 32.472 193.046 32.008C193.35 31.528 193.614 30.992 193.838 30.4C194.062 29.792 194.23 29.128 194.342 28.408C194.47 27.688 194.534 26.92 194.534 26.104C194.534 25.048 194.286 24.208 193.79 23.584C193.31 22.944 192.59 22.624 191.63 22.624C191.134 22.624 190.662 22.72 190.214 22.912C189.766 23.104 189.35 23.384 188.966 23.752C188.598 24.104 188.254 24.528 187.934 25.024C187.63 25.52 187.366 26.072 187.142 26.68C186.934 27.272 186.774 27.912 186.662 28.6C186.55 29.272 186.494 29.976 186.494 30.712C186.494 31.464 186.606 32.104 186.83 32.632C187.07 33.144 187.414 33.536 187.862 33.808C188.31 34.064 188.846 34.192 189.47 34.192ZM199.562 37L203.186 19.864H206.762L204.962 28.144L206.786 25.696L211.634 19.864H215.858L208.898 28.072L212.306 37H208.346L205.874 30.064L204.41 30.88L203.138 37H199.562Z" fill="white"/>
<line x1="57.9969" y1="42.5" x2="218.997" y2="41.4874" stroke="white"/>
<path d="M35.0602 18.0847C34.595 18.205 34.4547 18.2652 34.0043 18.5593C33.4505 18.9269 33.1921 19.3547 32.306 21.4267C31.8482 22.4894 31.4642 23.3784 31.4568 23.3918C31.4421 23.4051 31.2648 23.3517 31.0655 23.2715C30.7332 23.1445 30.5707 23.1311 29.2342 23.1311C27.5728 23.1311 27.3513 23.1846 26.9452 23.6324C26.288 24.3542 26.539 25.4571 27.462 25.8381C27.8165 25.9918 27.9346 26.0052 28.9536 26.0052H30.0612L29.6182 26.3728C29.3745 26.58 28.6213 27.1815 27.942 27.7163C26.6203 28.7523 26.4283 28.9394 26.1698 29.4541C26 29.7816 26 29.7883 26 33.03V36.2717L26.2806 36.7797L26.5538 37.2876V38.718C26.5538 40.3489 26.6055 40.5895 27.0485 41.0039C27.5654 41.4784 27.5285 41.4784 29.9283 41.4985C31.3608 41.5119 32.1878 41.4918 32.3946 41.445C32.8155 41.3381 33.3767 40.8568 33.5244 40.4625C33.613 40.2352 33.6425 39.8944 33.6425 39.226V38.3036H37.9917C40.3841 38.3036 42.4 38.2835 42.4665 38.2635C42.5994 38.2167 42.7987 37.8959 42.7987 37.7355C42.7987 37.6753 42.7027 37.5349 42.5846 37.428L42.3705 37.2342H38.9664H35.5697L35.7839 36.7128L35.9906 36.1982L39.1141 36.1647C40.8346 36.1447 42.2523 36.1179 42.2597 36.1113C42.3335 36.0511 42.5034 35.6835 42.5034 35.5966C42.5034 35.5364 42.4074 35.3961 42.2892 35.2891L42.0751 35.0953H38.7449H35.4221L35.2375 35.2423C35.1119 35.3426 34.9273 35.7035 34.691 36.2984L34.3292 37.2007H31.3461C28.0232 37.2007 28.1709 37.2208 27.6393 36.7262C27.1519 36.2717 27.1445 36.2115 27.1445 32.9899V30.1091L27.3291 29.7749C27.4325 29.5878 27.654 29.3338 27.8312 29.2068C28.4663 28.7523 29.7068 27.7564 30.4009 27.1548L31.1098 26.5399H42.5034H53.8896L54.6059 27.1548C54.9972 27.4957 55.7947 28.144 56.3854 28.5985C57.4413 29.4073 57.6407 29.6279 57.8696 30.2094C58.0247 30.5903 58.5785 30.6973 58.8738 30.4032C59.0732 30.2027 59.0363 29.8284 58.7631 29.3271C58.512 28.8659 58.416 28.7723 56.7546 27.469C56.3706 27.1682 55.8095 26.7137 55.5067 26.4597L54.9529 26.0052H56.0605C57.109 26.0052 57.1903 25.9985 57.5595 25.8314C58.4751 25.417 58.7188 24.3542 58.0616 23.6324C57.6555 23.1846 57.4339 23.1311 55.7725 23.1311C54.436 23.1311 54.2736 23.1445 53.9413 23.2715C53.7419 23.3517 53.5647 23.4051 53.5499 23.3918C53.5352 23.3784 53.1512 22.4894 52.7008 21.4267C52.206 20.2837 51.763 19.3413 51.6079 19.1341C51.3052 18.7331 50.7957 18.3655 50.2345 18.1583C49.8505 18.0179 49.821 18.0179 42.6511 18.0045C36.5814 17.9912 35.3925 18.0045 35.0602 18.0847ZM50.0499 19.2745C50.2419 19.3747 50.4782 19.5552 50.5815 19.6755C50.6775 19.7891 51.1944 20.8786 51.7187 22.0951C52.2503 23.3049 52.7968 24.5548 52.9371 24.8689L53.1955 25.437L47.8494 25.4571C44.9106 25.4638 40.0962 25.4638 37.1573 25.4571L31.8113 25.437L32.0697 24.8689C32.21 24.5548 32.7564 23.3116 33.2807 22.1018C33.805 20.892 34.3071 19.8226 34.3883 19.7156C34.5729 19.4817 34.9126 19.2611 35.2596 19.1475C35.4737 19.074 36.9432 19.0606 42.6141 19.074L49.7028 19.0873L50.0499 19.2745ZM30.7406 24.3342C30.9769 24.4612 30.9769 24.4679 30.8809 24.6818L30.7775 24.9023L29.3893 24.9224C28.1857 24.9357 27.9937 24.9224 27.8756 24.8288C27.7057 24.6884 27.6983 24.4812 27.8608 24.3208C27.9642 24.2139 28.1118 24.2005 29.2416 24.2005C30.364 24.2005 30.5338 24.2139 30.7406 24.3342ZM57.1386 24.3141C57.3084 24.4478 57.3084 24.6149 57.146 24.7954C57.0204 24.9357 56.9687 24.9424 55.6249 24.9224L54.2293 24.9023L54.1259 24.6818C54.0299 24.4679 54.0299 24.4612 54.2662 24.3342C54.4729 24.2139 54.6428 24.2005 55.7504 24.2005C56.8137 24.2005 57.0204 24.2206 57.1386 24.3141ZM28.3555 38.2434C28.5549 38.2768 29.5591 38.3036 30.5855 38.3036H32.4611V39.2059C32.4611 40.0815 32.4537 40.1216 32.2765 40.2753L32.0992 40.4424H30.0982H28.0971L27.9199 40.2753C27.7426 40.1216 27.7353 40.0882 27.7353 39.099C27.7353 38.1632 27.7426 38.0897 27.8682 38.1365C27.9346 38.1565 28.1561 38.21 28.3555 38.2434Z" fill="white"/>
<path d="M49.9318 28.9194C46.9855 29.4474 44.6965 31.3924 43.9285 34.0125C43.7587 34.5806 43.7365 34.7945 43.7365 35.7303C43.7291 36.6794 43.7513 36.8732 43.9285 37.4614C44.0393 37.829 44.2756 38.4105 44.4676 38.7581L44.8072 39.3931L42.1047 41.8394C40.1036 43.6574 39.3725 44.3659 39.2618 44.5865C38.8704 45.3752 39.2544 46.3109 40.1257 46.6986C40.5171 46.8724 41.2703 46.8657 41.6542 46.6785C41.8167 46.5983 43.1384 45.4554 44.6374 44.0985L47.3178 41.6656L47.9602 41.953C50.5225 43.1093 53.6312 42.862 55.9128 41.3247C57.3454 40.3622 58.3348 39.0321 58.8 37.448C58.9698 36.8866 58.992 36.666 58.9994 35.7637C58.9994 34.9215 58.9698 34.6207 58.8443 34.1596C58.0911 31.4392 55.7578 29.4273 52.7672 28.9194C52.0288 28.7924 50.6332 28.7924 49.9318 28.9194ZM52.9888 30.0489C55.2483 30.5903 57.0278 32.2012 57.6555 34.2866C57.781 34.6943 57.8105 34.9884 57.8105 35.7637C57.8105 36.6259 57.7884 36.7997 57.6186 37.321C56.7915 39.7807 54.6576 41.3515 51.7999 41.6121C51.1797 41.6723 50.0942 41.5453 49.3853 41.3381C47.7239 40.8435 46.4539 39.881 45.649 38.4974C44.9254 37.2475 44.7186 36.0778 44.9771 34.7277C45.4349 32.3616 47.3843 30.5369 50.0721 29.9754C50.6628 29.8551 52.339 29.8952 52.9888 30.0489ZM45.9739 40.6764L46.38 41.044L43.8694 43.3232C42.4886 44.5731 41.2703 45.6425 41.1595 45.696C41.0487 45.7495 40.8937 45.7896 40.8051 45.7896C40.5688 45.7896 40.2882 45.4955 40.2882 45.2415C40.2882 45.0477 40.5318 44.8004 42.8874 42.6682C44.3199 41.3715 45.5087 40.3088 45.5309 40.3088C45.553 40.3088 45.7524 40.4759 45.9739 40.6764Z" fill="white"/>
<path d="M52.1248 35.1086L50.4781 36.5925L49.7176 35.9107C49.0678 35.3359 48.9127 35.2289 48.7133 35.2289C48.4401 35.2289 48.1152 35.4829 48.1152 35.6968C48.1152 35.9508 48.3146 36.1914 49.2007 36.9734C50.1606 37.829 50.3231 37.9359 50.611 37.8691C50.8326 37.8223 54.3326 34.7143 54.5098 34.4135C54.5689 34.3132 54.6132 34.1729 54.6132 34.0927C54.6132 33.8788 54.2883 33.6248 54.0077 33.6248C53.801 33.6248 53.5942 33.7852 52.1248 35.1086Z" fill="white"/>
<path d="M28.6583 29.8283C28.3703 29.9821 28.3186 30.0957 28.3556 30.5435C28.4294 31.3255 28.961 32.1142 29.7142 32.542C30.3788 32.923 30.6372 32.9564 33.1183 32.9564C34.7797 32.9497 35.4073 32.9297 35.4959 32.8695C35.6362 32.7693 35.7839 32.5353 35.7839 32.395C35.7839 32.2479 34.0413 29.9019 33.8714 29.8217C33.6647 29.7147 28.8577 29.7281 28.6583 29.8283ZM33.6425 31.3189C33.8419 31.5929 34.0117 31.8335 34.0117 31.8536C34.0117 31.9271 31.036 31.887 30.7332 31.8068C30.4009 31.7199 29.6552 31.105 29.6552 30.9245C29.6552 30.8309 29.8693 30.8176 31.4642 30.8176H33.266L33.6425 31.3189Z" fill="white"/>
<path d="M36.1752 29.815C35.9833 29.8885 35.8577 30.0823 35.8577 30.3163C35.8577 30.4834 37.4379 32.6957 37.689 32.8695C37.7776 32.9364 38.4274 32.9564 40.3399 32.9564H42.88L43.0572 32.7893C43.2566 32.6155 43.2935 32.3214 43.1458 32.1477C42.939 31.9004 42.7766 31.887 40.5245 31.887H38.3166L37.94 31.3656L37.5561 30.851L40.9453 30.8176C44.1426 30.7841 44.342 30.7775 44.4897 30.6572C44.7112 30.4767 44.6964 30.1224 44.4602 29.9152L44.2829 29.7481L40.3103 29.7548C38.1246 29.7548 36.2639 29.7816 36.1752 29.815Z" fill="white"/>
</svg>
