<svg clip-rule="evenodd" fill-rule="evenodd" height="512" image-rendering="optimizeQuality" shape-rendering="geometricPrecision" text-rendering="geometricPrecision" viewBox="0 0 1707 1707" width="512" xmlns="http://www.w3.org/2000/svg"><g id="Layer_x0020_1"><g id="_559912176"><g><g><path d="m606 932c179 27 318 183 318 370v374h-924v-374c0-187 139-343 319-370 38 34 88 54 143 54 55 0 105-20 144-54z" fill="#ffc839"/><path d="m720 1676v-707" fill="none"/><path d="m204 1676v-707" fill="none"/><path d="m0 1302v374h204v-707c-121 62-204 189-204 333z" fill="#ffa22e"/><path d="m720 969v707h204v-374c0-144-83-271-204-333z" fill="#ffa22e"/><path d="m714 424c-239-111-242 173-506 21" fill="none"/></g><rect fill="#ffc7ab" height="636" rx="254" ry="318" width="507" x="208" y="196"/><path d="m714 424c-13-128-121-228-252-228-138 0-251 112-254 249 264 152 267-132 506-21z" fill="#945230"/></g><path d="m1328 268h-473v358h307l138 85-5-85h33z" fill="#1689fc"/><path d="m1328 268h-130v154h130z" fill="#147be3"/><path d="m1036 559c-5 15-21 22-36 17-14-6-21-22-16-36l79-206c5-14 21-21 36-16 8 3 14 10 16 18l84 203c6 14-1 30-15 36s-31-1-37-15l-57-140z" fill="#1064b8"/><path d="m1034 514c-15 0-28-12-28-27 0-16 13-28 28-28h113c16 0 28 12 28 28 0 15-12 27-28 27z" fill="#1064b8"/><path d="m1707 30h-474v358h307l138 85-5-85h34z" fill="#fc3"/><g fill="#ffa629"><path d="m1521 121c2-15 16-25 31-23 16 2 26 17 24 32-1 0-26 167-195 208-15 4-30-5-33-20-4-15 5-30 20-34 133-32 153-163 153-163z"/><path d="m1367 130c-3-15 8-30 23-32s29 8 32 23c0 0 20 131 152 163 15 4 24 19 21 34-4 15-19 24-34 20-169-41-194-208-194-208z"/><path d="m1360 153c-15 0-28-12-28-28 0-15 13-28 28-28h110 110c15 0 28 13 28 28 0 16-13 28-28 28h-110z"/><path d="m1498 125c0 16-13 28-28 28s-28-12-28-28v-18c0-16 13-28 28-28s28 12 28 28z"/></g></g></g></svg>