<svg id="Layer_1" viewBox="0 0 512 512" xmlns="http://www.w3.org/2000/svg" data-name="Layer 1"><path d="m177.454 447.116-96.309-96.308c-.762-.762-1.782-1.181-2.873-1.181s-2.111.419-2.873 1.181l-36.002 35.973c-1.538 1.547-1.539 4.19.013 5.757l96.309 96.28c.762.766 1.765 1.18 2.843 1.182h.007c1.09 0 2.108-.419 2.87-1.181l35.999-36c1.03-1.023 1.182-2.23 1.182-2.86s-.151-1.836-1.165-2.843z" fill="#837683"/><path d="m299.09 124.811-7.135 9.219c-1.326 1.713-3.37 2.716-5.536 2.716s-4.21-1.003-5.536-2.716l-7.139-9.224c-27.65 5.823-47.704 30.037-47.704 59.053 0 33.293 27.086 60.379 60.379 60.379s60.351-27.086 60.351-60.379c0-29.008-20.042-53.216-47.679-59.048z" fill="#ffc338"/><path d="m487.377 334.165c-1.905-13.115-11.05-23.381-23.859-26.79-12.083-3.223-24.918-1.943-36.144 3.606l-65.103 32.165c-4.873-19.946-22.87-34.59-44.133-34.59h-77.829c-26.739-14.977-53.693-18.816-80.144-11.408-22.796 6.385-45.734 21.387-68.26 44.62l-.859-.859c-3.406-3.406-7.942-5.282-12.773-5.282s-9.367 1.876-12.771 5.28l-36.018 35.989c-6.989 7.034-6.989 18.48 0 25.515l96.32 96.292c3.386 3.409 7.908 5.29 12.734 5.298h.031c4.828 0 9.362-1.875 12.77-5.282l35.982-35.983c3.416-3.394 5.298-7.931 5.298-12.776 0-3.989-1.294-7.757-3.642-10.854 1.446-.382 2.798-.586 4.012-.586h73.417c18.764 0 33.713-1.97 49.994-6.589l54.031-15.393c18.89-5.393 33.968-12.648 50.796-21.882l50.673-27.802c11.416-6.237 17.489-19.075 15.477-32.689zm-309.939 118.654-35.999 36c-.762.762-1.78 1.181-2.87 1.181h-.007c-1.078-.002-2.081-.416-2.843-1.182l-96.309-96.28c-1.552-1.567-1.551-4.21-.013-5.757l36.002-35.973c.762-.762 1.782-1.181 2.873-1.181s2.111.419 2.873 1.181l96.309 96.308c1.014 1.007 1.165 2.214 1.165 2.843s-.151 1.837-1.182 2.86zm287.739-98.245-50.684 27.808c-16.001 8.78-30.271 15.659-47.901 20.693l-54.02 15.39c-14.961 4.244-28.768 6.055-46.166 6.055h-73.417c-5.263 0-10.416 1.675-14.675 3.656l-76.512-76.511c44.624-46.165 88.232-55.987 133.154-30.048l1.624.938h81.557c16.692 0 30.481 13.031 31.393 29.662.094 1.742-.394 3.079-1.556 4.306-1.215 1.27-2.531 1.836-4.268 1.836h-92.892c-3.866 0-7 3.134-7 7s3.134 7 7 7h92.892c5.555 0 10.528-2.129 14.407-6.184 2.119-2.237 3.612-4.801 4.494-7.583l70.969-35.062c8.179-4.044 17.529-4.978 26.336-2.628 7.419 1.974 12.506 7.684 13.611 15.292 1.166 7.886-2.028 14.926-8.348 18.379zm-316.322 94.663c0 6.066-4.933 10.998-10.999 10.998s-10.999-4.932-10.999-10.998 4.932-10.999 10.999-10.999 10.999 4.961 10.999 10.999zm130.564-304.865c0-3.866 3.134-7 7-7s7 3.134 7 7v3.221c5.595 1.546 10.435 4.926 13.599 9.686 2.14 3.22 1.264 7.564-1.956 9.704-3.222 2.141-7.565 1.263-9.704-1.956-1.798-2.705-5.223-4.386-8.938-4.386-5.565 0-10.093 3.637-10.093 8.108 0 5.053 1.504 6.133 11.493 8.25v.002c.011.002.022.003.033.005 8.465 1.771 22.631 4.736 22.631 21.96 0 9.942-7.199 18.367-17.064 21.125v3.253c0 3.866-3.134 7-7 7s-7-3.134-7-7v-3.242c-5.627-1.545-10.483-4.933-13.638-9.71-2.131-3.226-1.242-7.568 1.983-9.699 3.227-2.131 7.569-1.242 9.698 1.984 1.78 2.695 5.212 4.37 8.956 4.37 5.55 0 10.064-3.625 10.064-8.081 0-5.03-1.612-6.188-11.498-8.257-.006-.001-.012-.003-.018-.005-8.5-1.801-22.642-4.798-22.642-21.956 0-9.957 7.211-18.395 17.093-21.154v-3.224zm7 139.547c55.174 0 100.061-44.887 100.061-100.06 0-40.801-24.739-77.052-61.581-92.395l2.772-3.582c1.634-2.112 1.925-4.97.748-7.367-1.176-2.397-3.613-3.917-6.284-3.917h-8.137v-61.598c0-3.866-3.134-7-7-7s-7 3.134-7 7v68.598c0 3.866 3.134 7 7 7h.867l-21.446 27.711-21.447-27.711h.84c3.866 0 7-3.134 7-7v-68.598c0-3.866-3.134-7-7-7s-7 3.134-7 7v61.598h-8.109c-2.671 0-5.108 1.52-6.284 3.917-1.177 2.398-.886 5.256.748 7.367l2.766 3.573c-36.853 15.338-61.602 51.595-61.602 92.404 0 55.173 44.899 100.06 100.089 100.06zm0-147.174c2.166 0 4.21-1.003 5.536-2.716l7.135-9.219c27.638 5.832 47.679 30.04 47.679 59.048 0 33.293-27.073 60.379-60.351 60.379s-60.379-27.086-60.379-60.379c0-29.017 20.053-53.23 47.704-59.053l7.139 9.224c1.326 1.713 3.37 2.716 5.536 2.716zm-29.559-33.754 7.586 9.801c-12.463 3.85-23.779 10.935-32.781 20.723-12.654 13.76-19.624 31.639-19.624 50.344 0 41.013 33.366 74.379 74.379 74.379s74.351-33.366 74.351-74.379c0-18.705-6.97-36.584-19.624-50.344-8.997-9.782-20.305-16.865-32.759-20.716l7.584-9.799c33.635 12.287 56.508 44.47 56.508 80.86 0 47.454-38.606 86.06-86.061 86.06s-86.089-38.606-86.089-86.06c0-36.397 22.883-68.587 56.529-80.868zm-153.822 138.443c-1.634-2.112-1.925-4.97-.748-7.367 1.176-2.397 3.613-3.917 6.284-3.917h8.108v-61.598c0-3.866 3.134-7 7-7s7 3.134 7 7v68.598c0 3.866-3.134 7-7 7h-.839l21.447 27.711 21.426-27.684h-.806c-1.86.02-3.643-.731-4.958-2.044s-2.055-3.095-2.055-4.954v-68.626c0-3.866 3.134-7 7-7s7 3.134 7 7v61.613l8.096-.015h.013c2.668 0 5.104 1.517 6.281 3.911 1.18 2.399.891 5.26-.745 7.373l-35.716 46.148c-1.326 1.713-3.37 2.716-5.536 2.716s-4.21-1.003-5.536-2.716l-35.717-46.148zm283.481-7.368c1.176-2.397 3.613-3.917 6.284-3.917h8.108v-61.598c0-3.866 3.134-7 7-7s7 3.134 7 7v68.598c0 3.866-3.134 7-7 7h-.839l21.446 27.711 21.427-27.684h-.806s-.009.001-.013.001c-1.854 0-3.633-.736-4.945-2.046-1.315-1.313-2.055-3.095-2.055-4.954v-68.626c0-3.866 3.134-7 7-7s7 3.134 7 7v61.613l8.096-.015h.013c2.668 0 5.104 1.517 6.281 3.911 1.18 2.399.891 5.26-.745 7.373l-35.717 46.148c-1.326 1.713-3.37 2.716-5.536 2.716s-4.21-1.003-5.536-2.716l-35.716-46.148c-1.634-2.112-1.925-4.97-.748-7.367z"/><path d="m192.989 424.52h73.417c17.398 0 31.205-1.811 46.166-6.055l54.02-15.39c17.631-5.033 31.9-11.913 47.901-20.693l50.684-27.808c6.319-3.453 9.514-10.493 8.348-18.379-1.105-7.608-6.192-13.318-13.611-15.292-8.807-2.349-18.157-1.416-26.336 2.628l-70.969 35.062c-.882 2.782-2.375 5.346-4.494 7.583-3.879 4.054-8.853 6.184-14.407 6.184h-92.892c-3.866 0-7-3.134-7-7s3.134-7 7-7h92.892c1.736 0 3.053-.566 4.268-1.836 1.162-1.228 1.649-2.564 1.556-4.306-.911-16.631-14.7-29.662-31.393-29.662h-81.557l-1.624-.938c-44.922-25.939-88.531-16.117-133.154 30.048l76.512 76.511c4.259-1.981 9.412-3.656 14.675-3.656z" fill="#f6dccd"/><path d="m286.419 269.919c47.454 0 86.061-38.606 86.061-86.06 0-36.39-22.873-68.573-56.508-80.86l-7.584 9.799c12.454 3.851 23.762 10.934 32.759 20.716 12.654 13.76 19.624 31.639 19.624 50.344 0 41.013-33.354 74.379-74.351 74.379s-74.379-33.366-74.379-74.379c0-18.705 6.97-36.584 19.624-50.344 9.002-9.788 20.318-16.873 32.781-20.723l-7.586-9.801c-33.646 12.281-56.529 44.471-56.529 80.868 0 47.454 38.619 86.06 86.089 86.06z" fill="#ffe177"/><g fill="#8ac9fe"><path d="m272.812 15v68.598c0 3.866-3.134 7-7 7v1.085l20.607 26.626 20.579-26.59v-1.12c-3.866 0-7-3.134-7-7v-68.599c0-3.866 3.134-7 7-7h-41.187c3.866 0 7 3.134 7 7z"/><path d="m130.683 168.552v68.598c0 3.866-3.134 7-7 7v1.084l20.608 26.627 20.607-26.627v-1.056c-1.855.015-3.633-.735-4.945-2.045-1.315-1.313-2.055-3.095-2.055-4.954v-68.626c0-3.866 3.134-7 7-7h-41.216c3.866 0 7 3.134 7 7z"/><path d="m414.911 168.552v68.598c0 3.866-3.134 7-7 7v1.084l20.607 26.627 20.608-26.627v-1.056c-1.854 0-3.633-.736-4.945-2.046-1.315-1.313-2.055-3.095-2.055-4.954v-68.626c0-3.866 3.134-7 7-7h-41.216c3.866 0 7 3.134 7 7z"/></g></svg>